<svg width="160" height="38" viewBox="0 0 160 38" fill="none" xmlns="http://www.w3.org/2000/svg">
<path fill-rule="evenodd" clip-rule="evenodd" d="M105.441 0V3.28996H101V0H105.441ZM101 19.5293V4.9442H105.441V19.5293H101ZM96.6042 5.21089H99.2521H99.2526V7.84296H96.6047V14.9976C96.6047 16.1492 97.2021 16.4508 98 16.4508C98.4837 16.4508 99.1095 16.396 99.3379 16.3687V19.7407C98.7684 19.796 97.459 19.9055 96.4911 19.9055C92.7042 19.9055 92.1632 17.6302 92.1632 15.5192V7.84246H90V5.21089H92.1632V0.98884H96.6042V5.21089ZM42.5158 4.9442C45.3911 4.9442 47.8679 5.95891 49.32 8.50836L45.9032 10.2357C45.1063 8.59047 43.7395 8.23416 43.0563 8.23416C40.5226 8.23416 39.6116 10.1257 39.6116 12.6204C39.6116 15.1157 40.6932 17.0072 43.0563 17.0072C44.4226 17.0072 45.5042 16.514 46.2163 14.8688L49.4047 16.4314C48.0384 18.7619 45.5616 20.2972 42.6579 20.2972C38.1316 20.2972 35 17.5277 35 12.6204C35 7.79523 38.3311 4.9442 42.5158 4.9442ZM42.5158 21.7545C45.3911 21.7545 47.8679 22.7692 49.32 25.3186L45.9032 27.0465C45.1063 25.4013 43.7395 25.0449 43.0563 25.0449C40.5226 25.0449 39.6116 26.9365 39.6116 29.4317C39.6116 31.9264 40.6932 33.818 43.0563 33.818C44.4226 33.818 45.5042 33.3243 46.2163 31.6791L49.4047 33.2417C48.0384 35.5722 45.5616 37.1075 42.6579 37.1075C38.1316 37.1075 35 34.3385 35 29.4312C35 24.6055 38.3311 21.7545 42.5158 21.7545ZM58.0563 21.7545C53.3305 21.7545 50 24.5234 50 29.4312C50 34.3385 53.3305 37.1075 58.0563 37.1075C62.7821 37.1075 66.1132 34.3385 66.1132 29.4312C66.1132 24.5239 62.7821 21.7545 58.0563 21.7545ZM57.6153 24.721C60.149 24.721 61.2311 26.6126 61.2311 28.943C61.2311 31.6025 60.149 33.494 57.6153 33.494C55.0816 33.494 54 31.6025 54 29.1078C54 26.6131 55.0816 24.721 57.6153 24.721ZM67.0005 36.7233H71.4416V27.6491C71.4416 26.3334 72.0111 25.2092 73.8042 25.2092C75.5126 25.2092 75.9679 26.1686 75.9679 27.5944V36.7238H80.409V27.7586C80.409 26.2781 81.1774 25.2092 82.6579 25.2092C84.3374 25.2092 84.9353 26.1413 84.9353 28.1975V36.7233H89.3763V25.5928C89.3763 22.2481 86.1879 21.7545 84.7074 21.7545C82.9421 21.7545 81.2911 22.2755 79.8395 23.7008C78.8426 22.4124 77.5621 21.7545 75.8253 21.7545C74.4589 21.7545 72.58 22.1382 71.4411 23.4271V22.1387H67V36.7233H67.0005ZM95.4416 36.7233H91.0005H91V22.1387H95.441V23.4271C96.58 22.1382 98.4589 21.7545 99.8252 21.7545C101.562 21.7545 102.843 22.4124 103.839 23.7008C105.292 22.2755 106.942 21.7545 108.707 21.7545C110.187 21.7545 113.376 22.2481 113.376 25.5928V36.7233H108.935V28.1975C108.935 26.1413 108.337 25.2092 106.657 25.2092C105.177 25.2092 104.409 26.2781 104.409 27.7586V36.7238H99.9679V27.5944C99.9679 26.1686 99.5126 25.2092 97.8042 25.2092C96.011 25.2092 95.4416 26.3334 95.4416 27.6491V36.7233ZM114 29.4312C114 24.5234 117.331 21.7545 122.057 21.7545C126.783 21.7545 130.114 24.5239 130.114 29.4312C130.114 34.3385 126.783 37.1075 122.057 37.1075C117.331 37.1075 114 34.3385 114 29.4312ZM125.231 28.943C125.231 26.6126 124.149 24.721 121.616 24.721C119.082 24.721 118 26.6131 118 29.1078C118 31.6025 119.082 33.494 121.616 33.494C124.149 33.494 125.231 31.6025 125.231 28.943ZM135.442 36.7233H131.001H131V22.1387H135.441V23.4271C136.58 22.1382 138.459 21.7545 139.825 21.7545C143.412 21.7545 144.409 23.756 144.409 25.9492V36.7238H139.968V27.5944C139.968 26.1686 139.513 25.2092 137.805 25.2092C136.011 25.2092 135.442 26.3334 135.442 27.6491V36.7233ZM159.093 23.8655C157.043 22.5497 154.737 21.7545 152.403 21.7545C149.327 21.7545 145.997 23.1802 145.997 26.8539C145.997 29.9702 149.24 30.5578 151.826 31.0262C153.54 31.3366 154.964 31.5946 154.964 32.5017C154.964 33.818 153.285 33.9822 152.544 33.9822C150.523 33.9822 149.128 33.1875 147.762 31.9259L145 34.2285C147.221 36.2027 149.099 37.1074 152.402 37.1074C155.704 37.1074 159.234 35.7364 159.234 31.8986C159.234 28.6438 156.043 28.0626 153.468 27.5937C151.726 27.2766 150.267 27.0108 150.267 26.0044C150.267 25.2644 151.064 24.8807 152.174 24.8807C153.569 24.8807 155.476 25.4291 156.358 26.4433L159.093 23.8655ZM51 19.584H55.4411V11.1399C55.4411 9.52257 56.4942 9.08364 59.1421 8.78206L59.6258 8.72732L59.5974 4.9442C58.0316 5.05419 56.4089 5.60209 55.4411 6.47945V4.99894H51V19.584ZM74.8611 13.4978C74.8326 9.00153 72.9537 4.9442 67.4305 4.9442C62.8184 4.9442 60 7.90521 60 13.0594C60 17.1714 62.7332 20.2972 67.4305 20.2972C70.8184 20.2972 73.2379 19.0088 74.7753 16.2672L71.4442 14.5946C70.1632 16.3493 69.3942 17.1714 67.7432 17.1714C66.32 17.1714 64.4695 16.2941 64.4411 13.4978H74.8611ZM64 10.707C64.1989 8.78757 65.7363 7.91072 67.0174 7.91072C68.2984 7.91072 69.8926 8.56861 70.0347 10.707H64ZM81.9179 4.9442C86.0458 4.9442 88.6363 5.8763 88.6647 9.16625V16.8704C88.6647 17.8851 88.6932 19.0088 89.0632 19.9135H84.9637C84.7932 19.4198 84.7074 18.8993 84.6789 18.4056H84.6221C83.8821 19.5572 81.6616 20.2972 80.0674 20.2972C77.1637 20.2972 75 18.7619 75 15.9656C75 12.4562 77.9326 11.2225 82.7721 10.5647L84.3947 10.3452V9.13888C84.3947 8.04206 83.4837 7.57627 82.2879 7.57627C80.8642 7.57627 80.1816 8.06943 79.9537 9.52257H75.6832C75.8258 5.32788 79.8679 4.9442 81.9179 4.9442ZM81.0784 17.2138C82.8153 17.2138 84.1247 16.0896 84.1247 13.8691V12.8549L81.1353 13.6775C80.0247 13.9791 79 14.3902 79 15.5691C79 16.7201 79.9963 17.2138 81.0784 17.2138ZM115.594 19.5293H111.124L106 4.9442H110.754L113.374 15.2525H113.43L116.049 4.9442H120.775L115.594 19.5293ZM128.43 4.9442C133.953 4.9442 135.832 9.00153 135.86 13.4978H125.441C125.469 16.2941 127.32 17.1714 128.743 17.1714C130.394 17.1714 131.163 16.3493 132.444 14.5946L135.775 16.2672C134.237 19.0088 131.818 20.2972 128.43 20.2972C123.732 20.2972 121 17.1714 121 13.0594C121 7.90521 123.817 4.9442 128.43 4.9442ZM128.017 7.91072C126.736 7.91072 125.199 8.78757 125 10.707H131.035C130.893 8.56861 129.298 7.91072 128.017 7.91072ZM16.6326 3.95536C12.0632 3.95536 8.0421 5.58387 4.93474 8.61989C1.73632 11.7446 0 15.7928 0 20.0174C0 24.2856 1.69053 28.2461 4.88947 31.3267C8.08789 34.4069 12.2463 36.079 16.6326 36.079C21.0189 36.079 25.2689 34.4069 28.5589 31.2826C31.6663 28.3343 33.3111 24.4179 33.3111 20.0174C33.3111 15.661 31.6663 11.7005 28.5132 8.66399C25.3147 5.58387 21.2021 3.95536 16.6326 3.95536ZM16.6632 6.92188C20.41 6.92188 23.7458 8.28581 26.3505 10.7942C28.9089 13.2585 30.28 16.515 30.28 20.0792C30.28 23.6874 28.9547 26.8558 26.3958 29.2765C23.6995 31.8285 20.2268 33.1929 16.6626 33.1929C13.0526 33.1929 9.67105 31.829 7.06684 29.3206C4.46211 26.8117 3 23.5116 3 20.0792C3 16.6027 4.46211 13.3026 7.06684 10.7501C9.62579 8.24222 12.9163 6.92188 16.6632 6.92188ZM16.2926 17.1454C15.3505 15.491 13.7432 14.8326 11.8774 14.8326C9.16158 14.8326 7 16.6826 7 19.8144C7 22.999 9.03211 24.7962 11.97 24.7962C13.8547 24.7962 15.4616 23.7998 16.3484 22.2878L14.2789 21.2736C13.8168 22.3411 13.1153 22.6614 12.2284 22.6614C10.6947 22.6614 9.99316 21.4338 9.99316 19.8149C9.99316 18.1961 10.5842 16.968 12.2284 16.968C12.6716 16.968 13.5584 17.1996 14.0758 18.2665L16.2926 17.1454ZM21.8779 14.8326C23.7437 14.8326 25.3505 15.491 26.2932 17.1454L24.0763 18.2665C23.5584 17.1996 22.6716 16.968 22.2284 16.968C20.5842 16.968 19.9926 18.1961 19.9926 19.8149C19.9926 21.4338 20.6953 22.6614 22.2284 22.6614C23.1153 22.6614 23.8174 22.3411 24.2789 21.2736L26.3484 22.2878C25.4616 23.7998 23.8547 24.7962 21.97 24.7962C19.0326 24.7962 17 22.999 17 19.8144C17 16.6826 19.1621 14.8326 21.8779 14.8326Z" fill="#353535"/>
</svg>
