<svg width="110" height="38" viewBox="0 0 110 38" fill="none" xmlns="http://www.w3.org/2000/svg">
<path fill-rule="evenodd" clip-rule="evenodd" d="M48.6599 3.41322C45.7305 3.41322 43.7214 5.47075 43.7214 8.61776C43.7214 11.7648 45.6823 13.8223 48.5872 13.8223C51.5162 13.8223 53.5014 11.7648 53.5014 8.59343C53.5014 5.47075 51.5405 3.41322 48.6599 3.41322ZM48.5872 17.2355C43.2855 17.2355 39.8482 13.7255 39.8482 8.6421C39.8482 3.46165 43.3824 -1.73312e-05 48.6115 -1.73312e-05C53.8399 -1.73312e-05 57.3743 3.43756 57.3743 8.61776C57.3743 13.8707 53.7676 17.2355 48.5872 17.2355ZM13.2474 34.2178V31.2739H30.9106L30.9109 13.6107H33.8547L33.8545 34.2178H13.2474ZM19.1351 19.4985H27.9667V28.3303H19.1351V19.4985ZM27.9667 13.6107V16.5546L16.1913 16.5548V28.3303H13.2474V13.6107H27.9667ZM0 37.1617H36.7986V0.363557L33.8545 0.363311V10.6669H30.9106L30.9109 0.363557L27.9667 0.363311V10.6669H25.0229L25.0231 0.363557L22.079 0.363311V10.6669H19.1351V0.363557H16.1913V10.6669H13.2474V0.363557H10.3035V10.6669H0V13.6107H10.3035V16.5548H0V19.4985H10.3035V22.4423L0 22.4426V25.3862H10.3035V28.3303H0V31.2739H10.3035V34.2178L0 34.218V37.1617ZM70.446 5.51938C70.446 6.70522 69.7441 7.50414 68.2431 7.50414H64.0553V3.50978H68.2431C69.5745 3.50978 70.446 4.16367 70.446 5.51938ZM68.9693 0.363012H60.4243V16.9452H64.0553V10.4818H68.8484C72.1407 10.4818 74.3191 8.64205 74.3191 5.34951C74.3191 2.34802 72.3825 0.363012 68.9693 0.363012ZM90.9734 13.7981V16.9451H76.9328V0.362915H90.5617V3.50968H80.5643V6.80222H87.8505V9.65892H80.5643V13.7981H90.9734ZM98.7436 0.363028H93.9019V16.9452H97.4848V5.03487H97.6541L105.159 16.9452H110V0.363028H106.417V12.2731H106.248L98.7436 0.363028ZM57.3744 27.9631V37.1618H54.3481V35.0558H53.9609C53.1623 36.4841 51.1773 37.4039 48.9983 37.4039C43.8906 37.4039 40.5501 34.0391 40.5501 29.0037C40.5501 23.8719 44.0115 20.2168 49.4585 20.2168C53.5979 20.2168 56.6724 22.0322 57.3501 25.8569H53.4042C52.8717 24.5256 51.6369 23.63 49.3616 23.63C46.4321 23.63 44.423 25.7116 44.423 28.8346C44.423 32.175 46.4321 34.0391 49.4341 34.0391C51.6369 34.0391 53.4282 32.9014 53.9366 31.2067V30.8921H48.3931V27.9631H57.3744ZM64.0312 20.5797V34.0148H71.6136L70.5616 37.1618H60.4245V20.5797H64.0312ZM78.5896 30.5773L80.7926 23.7265H80.9863L83.1891 30.5773H78.5896ZM83.6491 20.5797H78.154L72.6102 37.1619H76.4593L77.6213 33.5793H84.1572L85.3194 37.1619H89.1926L83.6491 20.5797ZM96.5163 20.5798H90.7791V37.1619H94.3619V24.4529H94.5554L99.0825 37.1619H101.745L106.2 24.4529H106.417V37.1619H110V20.5798H104.311L100.486 31.0859H100.293L96.5163 20.5798Z" fill="black"/>
</svg>
